# xmcd
#
# Track frame offsets:
#	150
#	17667
#	38295
#	52820
#	74561
#	93066
#	107692
#	125207
#	145835
#	160361
#	182102
#	200609
#
# Disc length: 2869 seconds
#
# Revision: 1
# Processed by: cddbd v1.5.2PL0 Copyright (c) Steve Scherf et al.
# Submitted via: audiograbber 1.83.01
#
DISCID=a00b330c
DTITLE=Various Artist - CB 2001
DYEAR=1900
DGENRE=Karaoke
TTITLE0=Tim McGraw and Faith Hill - It's Your Love (Vocal)
TTITLE1=Trisha Yearwood - How Do I Live (Vocal)
TTITLE2=Michael Peterson - Drink Swear Lie And Steal (Vocal)
TTITLE3=Rayborn Brothers - Butterfly Kisses (Vocal)
TTITLE4=Lila McCann - Down Came A Blackbird (Vocal)
TTITLE5=Trace Adkins - I Left Something Turned On At Home (Vocal)
TTITLE6=Tim McGraw and Faith Hill - It's Your Love
TTITLE7=Trisha Yearwood - How Do I Live
TTITLE8=Michael Peterson - Drink Swear Lie And Steal
TTITLE9=Rayborn Brothers - Butterfly Kisses
TTITLE10=Lila McCann - Down Came A Blackbird
TTITLE11=Trace Adkins - I Left Something Turned On At Home
EXTD=Chart Busters 6+6 Series
EXTT0=
EXTT1=
EXTT2=
EXTT3=
EXTT4=
EXTT5=
EXTT6=
EXTT7=
EXTT8=
EXTT9=
EXTT10=
EXTT11=
PLAYORDER=
